PathFileType  4	(X/Y/Z) /Users/kristensteudel/Documents/NMBL_Research/BertecForceProcessing/anc_files/
DataRate	CameraRate	NumFrames	NumMarkers	Units	OrigDataRate	OrigDataStartFrame	OrigNumFrames
  200.0		  200.0		    9		     46		 mm	  200.0	      60	    477
Frame#	Time	r_knee			r_shank_antsup			r_ankle			r_calc			r_5meta			r_toe			L_knee			L_shank_antsup			L_ankle			L_calc			L_5meta			L_toe			r_sh2			r_sh3			r_sh4			L_sh2			L_sh3			r_thigh1			r_thigh2			r_thigh3			r_thigh4			r_thigh5			L_thigh1			L_thigh2			L_thigh3			L_thigh4			r.ASIS			r.PSIS			L.ASIS			L.PSIS			C7			R_Shoulder			L_Shoulder			Sternum			R_humerus			R_elbow_med			R_elbow_lat			R_forearm			R_wrist_radius			R_wrist_ulna			L_humerus			L_elbow_med			L_elbow_lat			L_forearm			L_wrist_radius			L_wrist_ulna			
		X1	Y1	Z1	X2	Y2	Z2	X3	Y3	Z3	X4	Y4	Z4	X5	Y5	Z5	X6	Y6	Z6	X7	Y7	Z7	X8	Y8	Z8	X9	Y9	Z9	X10	Y10	Z10	X11	Y11	Z11	X12	Y12	Z12	X13	Y13	Z13	X14	Y14	Z14	X15	Y15	Z15	X16	Y16	Z16	X17	Y17	Z17	X18	Y18	Z18	X19	Y19	Z19	X20	Y20	Z20	X21	Y21	Z21	X22	Y22	Z22	X23	Y23	Z23	X24	Y24	Z24	X25	Y25	Z25	X26	Y26	Z26	X27	Y27	Z27	X28	Y28	Z28	X29	Y29	Z29	X30	Y30	Z30	X31	Y31	Z31	X32	Y32	Z32	X33	Y33	Z33	X34	Y34	Z34	X35	Y35	Z35	X36	Y36	Z36	X37	Y37	Z37	X38	Y38	Z38	X39	Y39	Z39	X40	Y40	Z40	X41	Y41	Z41	X42	Y42	Z42	X43	Y43	Z43	X44	Y44	Z44	X45	Y45	Z45	X46	Y46	Z46	

60	0.30000	1156.529	716.291	-181.059	1194.645	598.752	-173.671	1166.669	262.884	-207.603	1089.451	237.553	-270.271	1276.196	175.475	-180.435	1320.689	205.397	-238.811	592.423	577.010	-463.169	507.697	481.914	-462.715	222.124	362.026	-411.087	189.450	406.130	-353.138	194.670	195.742	-429.469	231.013	166.563	-366.808	1195.224	479.461	-181.053	1123.204	595.013	-152.549	1113.844	481.146	-174.853	466.316	561.922	-472.376	365.812	497.676	-444.599	1053.199	923.115	-157.399	1138.509	848.612	-176.755	1133.486	792.143	-162.338	986.494	836.373	-129.227	1073.791	763.786	-161.633	780.096	733.262	-486.996	710.497	614.839	-458.140	677.920	791.711	-510.430	615.027	673.168	-468.575	904.934	1033.395	-187.124	695.867	1089.708	-256.526	881.741	1034.613	-450.572	690.367	1110.896	-353.571	850.260	1572.921	-334.397	837.772	1558.826	-129.992	971.312	1509.936	-484.402	971.388	1446.953	-267.458	656.768	1457.333	-56.252	511.108	1453.638	-132.161	519.867	1484.016	-54.463	567.196	1318.187	-13.830	584.845	1201.054	-5.862	533.066	1203.079	7.658	925.087	1283.946	-586.852	792.791	1177.120	-581.853	850.500	1222.033	-652.284	975.203	1236.542	-543.756	1016.870	1286.416	-448.172	1045.879	1226.674	-473.453
61	0.30500	1149.870	707.155	-181.155	1191.362	590.209	-172.566	1186.128	253.919	-206.140	1109.784	226.024	-268.262	1299.871	170.769	-180.617	1342.573	202.535	-239.201	598.386	576.582	-464.504	509.125	485.358	-463.201	217.449	384.065	-411.972	186.733	430.078	-354.154	183.320	218.404	-427.335	217.654	188.924	-363.003	1200.133	471.317	-179.750	1120.021	581.783	-152.474	1118.877	467.521	-173.389	472.757	567.252	-474.038	368.297	508.903	-446.413	1053.387	917.919	-157.840	1134.899	839.937	-177.512	1128.698	784.102	-162.521	983.649	833.925	-128.593	1068.094	758.039	-161.073	784.102	735.072	-487.821	716.272	615.533	-460.274	680.345	791.718	-510.237	619.905	671.809	-469.384	904.244	1035.134	-187.640	696.096	1092.916	-256.052	881.003	1038.036	-451.006	690.124	1115.643	-353.515	852.194	1575.947	-332.523	839.288	1559.891	-128.030	972.969	1513.103	-482.793	972.333	1449.094	-266.857	658.166	1455.910	-55.187	513.427	1453.049	-131.217	521.680	1482.180	-53.707	570.271	1316.347	-14.547	589.134	1199.125	-7.330	537.382	1200.405	6.257	923.319	1288.741	-587.736	788.832	1184.788	-583.622	847.801	1228.440	-653.351	972.433	1237.649	-544.034	1015.956	1284.702	-447.234	1042.713	1224.589	-473.573
62	0.31000	1142.374	696.589	-181.213	1187.397	581.284	-170.840	1203.265	246.716	-204.905	1127.743	215.865	-266.563	1320.369	167.137	-180.502	1361.648	200.707	-238.846	605.618	575.619	-465.780	512.293	489.404	-463.673	215.750	404.762	-410.945	186.430	454.408	-355.269	173.160	242.085	-425.515	204.785	211.669	-360.277	1204.552	463.262	-178.811	1116.503	567.633	-152.401	1124.074	453.268	-172.999	479.813	573.029	-475.882	372.572	521.286	-447.999	1052.622	911.627	-157.768	1130.382	831.038	-177.509	1122.839	774.741	-162.660	979.955	830.384	-127.858	1061.242	750.928	-160.110	790.225	737.949	-488.303	723.038	615.466	-461.897	683.376	791.155	-509.993	625.362	669.571	-470.162	903.615	1036.929	-187.823	696.286	1095.738	-255.610	880.490	1041.259	-451.348	689.309	1119.120	-352.740	854.406	1579.020	-330.587	840.971	1560.846	-126.126	974.313	1515.715	-481.547	973.031	1451.024	-266.427	659.975	1453.985	-53.749	515.938	1451.138	-130.387	523.946	1479.190	-52.455	574.010	1313.387	-14.815	594.048	1196.756	-8.302	542.218	1196.900	4.890	921.133	1293.240	-588.554	784.033	1192.087	-585.552	844.507	1234.855	-654.340	969.275	1237.803	-544.487	1013.839	1280.768	-446.906	1039.016	1220.717	-474.224
63	0.31500	1133.909	684.692	-181.097	1182.926	571.615	-170.068	1217.020	240.152	-202.997	1143.095	207.051	-265.334	1337.398	164.175	-179.899	1377.545	199.807	-237.866	613.663	573.809	-466.393	516.714	493.752	-464.224	216.123	426.491	-411.236	188.639	479.025	-356.880	165.258	266.610	-424.054	194.058	235.375	-357.585	1207.814	455.046	-178.442	1113.225	553.203	-151.432	1127.985	439.886	-172.548	488.291	578.768	-477.352	378.284	532.750	-449.124	1050.863	903.910	-157.474	1125.733	818.768	-178.230	1116.122	764.571	-161.096	975.372	825.745	-127.290	1053.465	743.023	-159.236	793.160	737.728	-489.317	730.317	615.078	-463.309	686.880	789.951	-509.883	631.447	667.008	-471.104	903.023	1038.584	-187.935	696.836	1098.072	-255.793	880.460	1044.369	-451.430	688.568	1122.177	-351.623	856.638	1581.932	-328.700	843.117	1561.376	-124.367	975.547	1518.060	-480.507	974.038	1452.629	-266.240	662.242	1451.546	-52.376	518.588	1447.799	-128.900	526.227	1475.192	-50.917	578.143	1309.416	-15.147	599.798	1192.908	-9.592	548.185	1192.441	3.853	918.762	1297.583	-589.487	778.358	1199.865	-587.357	840.475	1241.233	-655.123	965.488	1237.128	-545.355	1012.517	1276.507	-446.696	1034.605	1215.272	-475.537
64	0.32000	1124.710	672.258	-180.796	1178.906	562.120	-169.200	1227.577	234.436	-201.341	1155.558	199.067	-264.366	1351.599	162.316	-179.129	1390.861	199.390	-236.470	622.240	572.034	-467.415	522.027	497.854	-464.922	218.316	449.386	-412.616	194.196	503.248	-357.361	159.237	291.585	-422.432	186.563	260.002	-355.578	1208.763	446.699	-178.784	1110.605	540.267	-148.736	1129.289	429.271	-172.508	497.881	584.113	-478.820	385.738	543.614	-450.319	1048.791	895.173	-157.096	1120.188	807.594	-177.250	1108.432	754.010	-160.037	970.077	820.330	-127.174	1044.911	734.618	-158.336	797.628	738.194	-490.417	738.401	614.143	-464.347	690.564	788.287	-510.085	637.893	664.157	-472.194	902.780	1040.053	-187.884	696.999	1099.936	-255.498	880.390	1047.070	-451.468	688.088	1124.696	-350.729	858.601	1584.654	-326.750	845.496	1561.708	-122.584	975.979	1520.112	-480.083	974.709	1453.818	-266.069	664.867	1448.579	-50.850	521.329	1443.336	-127.268	528.738	1470.255	-48.761	582.839	1304.685	-15.103	606.386	1188.444	-10.675	554.663	1187.096	2.937	915.508	1301.601	-590.193	772.333	1207.250	-588.478	835.715	1247.538	-655.756	961.025	1235.531	-546.535	1010.683	1270.353	-447.438	1029.538	1208.493	-477.571
65	0.32500	1115.122	660.210	-180.313	1175.290	553.908	-169.568	1234.783	228.465	-199.740	1165.086	191.982	-263.766	1361.231	158.597	-178.538	1400.092	198.562	-234.387	631.696	569.476	-468.195	528.616	501.453	-465.377	222.797	470.175	-411.669	201.375	527.107	-358.460	156.493	316.767	-421.240	182.741	284.931	-353.636	1207.242	439.077	-178.867	1108.678	531.384	-144.977	1127.239	420.384	-171.618	508.602	588.877	-480.042	394.440	554.835	-451.854	1046.042	885.794	-157.003	1113.865	795.536	-177.310	1100.270	742.549	-158.482	964.424	814.423	-126.909	1035.722	725.764	-157.538	803.267	739.034	-490.907	746.278	613.647	-465.286	694.867	786.705	-510.632	645.151	661.138	-473.006	902.620	1041.592	-187.612	697.036	1101.312	-255.354	880.551	1049.511	-451.362	687.552	1127.042	-349.575	860.695	1587.026	-324.808	847.824	1561.628	-120.894	976.343	1522.011	-478.894	975.291	1454.891	-266.107	667.712	1444.900	-49.103	524.051	1437.424	-125.526	531.323	1464.157	-46.550	588.555	1298.939	-14.742	613.731	1183.173	-11.719	562.098	1180.884	2.173	911.756	1305.347	-590.955	765.915	1214.921	-589.343	830.363	1253.689	-656.053	955.842	1233.070	-548.248	1008.839	1262.719	-448.766	1023.539	1200.388	-480.426
66	0.33000	1105.493	649.270	-179.577	1171.058	547.692	-169.315	1239.888	223.468	-198.223	1171.325	186.191	-263.201	1367.952	154.964	-178.067	1406.436	196.800	-232.859	641.493	566.983	-469.161	535.716	504.996	-465.783	229.111	491.762	-411.873	210.107	550.507	-359.270	155.848	341.687	-419.978	178.743	307.709	-349.873	1204.753	433.544	-178.237	1105.867	524.151	-141.692	1125.362	413.491	-168.296	520.241	593.348	-481.346	403.976	565.309	-453.515	1042.814	875.987	-157.928	1106.684	782.733	-176.984	1091.751	730.863	-156.796	958.572	808.454	-126.228	1026.252	716.813	-156.875	808.769	739.709	-491.150	754.816	612.780	-466.019	699.609	784.914	-511.571	652.673	658.049	-474.378	902.752	1043.153	-187.290	697.449	1102.320	-255.441	880.921	1051.500	-451.242	687.887	1127.051	-350.312	862.877	1589.075	-323.278	849.930	1561.110	-119.273	976.325	1523.782	-477.483	976.167	1455.510	-266.260	670.922	1440.809	-47.294	527.183	1430.930	-123.101	534.219	1457.206	-43.931	593.985	1292.582	-14.365	621.963	1177.269	-12.687	570.571	1174.100	1.749	907.516	1308.923	-591.816	758.715	1222.191	-590.173	824.552	1259.803	-656.099	950.062	1229.814	-550.411	1006.093	1253.886	-450.911	1016.500	1191.227	-483.985
67	0.33500	1096.144	639.363	-178.336	1165.436	542.880	-169.984	1242.164	218.845	-196.375	1174.374	181.441	-262.233	1371.062	150.290	-177.948	1409.339	193.647	-231.714	651.540	564.612	-470.220	543.875	508.384	-466.210	236.957	512.893	-411.995	220.373	573.106	-360.062	157.842	366.035	-418.979	178.411	333.578	-349.804	1201.409	429.588	-177.416	1101.446	518.756	-140.986	1122.677	407.992	-164.396	532.318	597.102	-483.008	415.323	575.683	-454.959	1039.326	866.696	-157.437	1099.577	770.415	-176.553	1083.028	719.293	-154.676	952.799	802.427	-125.159	1016.587	708.135	-155.775	814.471	740.229	-491.205	763.551	612.078	-467.062	704.748	783.016	-512.792	660.465	655.198	-475.804	903.156	1044.924	-187.181	697.703	1103.047	-255.443	880.910	1053.270	-451.223	687.938	1126.578	-350.795	864.834	1590.560	-321.829	851.966	1560.186	-117.628	975.527	1525.202	-477.683	976.823	1455.912	-266.272	674.422	1435.934	-45.426	530.279	1423.074	-120.684	537.411	1449.079	-40.883	600.647	1285.450	-13.576	630.614	1170.677	-13.692	579.765	1166.776	1.385	902.756	1312.335	-592.656	751.696	1229.252	-590.059	818.219	1265.659	-655.920	943.448	1225.727	-553.038	1002.565	1243.822	-453.846	1008.613	1181.197	-488.401
68	0.34000	1087.276	630.393	-176.745	1157.995	538.941	-171.108	1241.198	214.063	-194.966	1173.920	177.123	-261.448	1370.794	144.827	-177.818	1408.942	189.411	-230.724	662.065	561.794	-471.302	551.939	512.185	-465.326	246.181	534.263	-413.115	232.130	594.926	-360.792	162.169	389.467	-417.828	181.297	357.001	-347.966	1196.958	426.360	-176.438	1094.723	513.737	-141.313	1118.951	403.020	-162.065	545.321	600.914	-484.529	427.352	584.800	-456.172	1035.810	856.899	-157.879	1091.443	757.689	-177.495	1074.282	708.173	-152.404	946.802	796.447	-123.301	1006.967	699.602	-154.838	820.852	740.758	-491.617	772.880	610.972	-467.845	710.029	780.730	-514.020	668.582	651.959	-477.531	903.684	1046.486	-187.292	698.712	1103.954	-255.603	881.192	1054.560	-451.132	688.458	1126.308	-351.384	865.956	1591.841	-319.688	854.036	1558.643	-115.644	974.658	1526.531	-477.174	977.664	1455.949	-266.504	678.114	1430.605	-43.283	533.538	1414.515	-117.893	540.885	1440.359	-37.732	607.755	1277.795	-12.664	640.455	1163.891	-14.391	589.536	1158.463	1.040	897.554	1315.406	-593.518	744.229	1236.195	-589.818	811.424	1271.166	-655.433	936.159	1221.012	-556.084	998.109	1232.635	-457.439	999.710	1170.515	-493.541
